<svg width="24" height="18" viewBox="0 0 24 18" fill="none" xmlns="http://www.w3.org/2000/svg">
<path d="M19.5334 6.26297L17.036 7.95559L17.1851 10.2263L19.3149 9.1456L19.5334 6.26297ZM23.1236 8.19515L16.398 11.6081L16.0137 5.75699L10.5702 10.4064L8.85512 3.20731L5.55587 7.69878L2.12727 0.58886L1.81082 6.83937C1.90207 6.85525 1.99301 6.8788 2.08286 6.91154C2.91141 7.21338 3.34386 8.1418 3.04205 8.97026C2.82026 9.57907 2.26014 9.97363 1.6499 10.0206L1.6069 10.8695C1.74553 12.1905 4.04752 14.0112 8.62674 15.7819C13.4721 17.6555 16.7532 17.8674 17.746 16.749L18.2629 15.9266C17.5553 15.5633 17.2072 14.7132 17.486 13.948C17.7878 13.1196 18.7162 12.6869 19.5448 12.9888C19.6995 13.0451 19.8405 13.1234 19.9654 13.2188L23.1236 8.19515ZM5.83604 1.99899L4.98583 4.49984L5.71222 6.00619L6.66164 4.71362L5.83604 1.99899ZM12.4216 4.54332L10.5192 6.41255L11.0904 8.80998L12.8953 7.26843L12.4216 4.54332ZM19.2449 13.812C18.8612 13.6722 18.4488 13.8643 18.3091 14.248C18.1693 14.6316 18.3614 15.044 18.7451 15.1838C19.1288 15.3236 19.5411 15.1314 19.6809 14.7478C19.8206 14.3641 19.6286 13.9518 19.2449 13.812ZM1.78289 7.73467C1.39927 7.59492 0.986868 7.78712 0.847115 8.17073C0.707362 8.55435 0.89947 8.96672 1.28318 9.10651C1.66688 9.24629 2.07916 9.05415 2.21893 8.67049C2.3587 8.28683 2.1666 7.87446 1.78289 7.73467ZM7.23679 10.6117C8.06533 10.9135 8.49781 11.8418 8.19597 12.6704C7.89416 13.4988 6.96588 13.9314 6.13734 13.6296C5.30875 13.3277 4.87622 12.3994 5.17803 11.5709C5.47984 10.7425 6.40833 10.3098 7.23679 10.6117ZM13.0168 12.7173C13.8453 13.0192 14.2778 13.9475 13.976 14.776C13.6742 15.6045 12.7459 16.0371 11.9173 15.7353C11.0887 15.4334 10.6562 14.5051 10.958 13.6766C11.2598 12.8481 12.1882 12.4155 13.0168 12.7173ZM6.93686 11.4348C6.55311 11.295 6.1409 11.4871 6.00111 11.8708C5.86136 12.2544 6.05337 12.6668 6.43707 12.8066C6.82069 12.9463 7.23305 12.7541 7.3728 12.3705C7.51256 11.9869 7.32061 11.5746 6.93686 11.4348ZM12.7168 13.5405C12.3331 13.4007 11.9209 13.5927 11.7811 13.9765C11.6414 14.3601 11.8334 14.7725 12.2171 14.9123C12.6009 15.0521 13.0132 14.8598 13.153 14.4762C13.2927 14.0926 13.1006 13.6803 12.7168 13.5405Z" fill="#A37310"/>
</svg>
